<svg width="64" height="64" viewBox="0 0 64 64" fill="none" xmlns="http://www.w3.org/2000/svg" role="img" aria-label="ReadingGo 참새">
  <rect width="64" height="64" rx="16" fill="#F1FBF5"/>
  <!-- 꼬리 -->
  <path d="M50 31 L61 26.5 L59.5 36 L50 37 Z" fill="#1F8E4D"/>
  <!-- 몸통 -->
  <ellipse cx="34" cy="38" rx="17" ry="15.5" fill="#3FD17F"/>
  <!-- 머리 -->
  <circle cx="23.5" cy="25.5" r="12.5" fill="#3FD17F"/>
  <!-- 배(밝은 톤) -->
  <path d="M21 42 Q31 51.5 45 45.5 Q40 51 30 51 Q22 49 19 43.5 Z" fill="#DFF6EA"/>
  <!-- 날개 -->
  <path d="M31 31.5 Q42 30.5 49 39.5 Q40 43.5 32 40.5 Q27 35.5 31 31.5 Z" fill="#2EB867"/>
  <!-- 부리 (짧고 부드럽게 #924, 머리 밖으로 돌출 복구 — #933에서 머리 안에 묻혀 안 보이던 것 수정) -->
  <path d="M7 25 L17 22 L17 28 Z" fill="#FF8A3D"/>
  <!-- 눈 (확대·중앙↑ #924) -->
  <circle cx="20.5" cy="24" r="3.4" fill="#2A2D33"/>
  <circle cx="21.7" cy="22.8" r="1.15" fill="#FFFFFF"/>
</svg>
